<?xml version="1.0" encoding="UTF-8"?>
<svg id="Capa_1" data-name="Capa 1" xmlns="http://www.w3.org/2000/svg" viewBox="0 0 1024 1024">
  <defs>
    <style>
      .cls-1 {
        fill: #fefefd;
      }

      .cls-1, .cls-2, .cls-3, .cls-4 {
        stroke-width: 0px;
      }

      .cls-2 {
        fill: #94c51d;
      }

      .cls-3 {
        fill: #fff;
      }

      .cls-4 {
        fill: #111827;
      }
    </style>
  </defs>
  <rect class="cls-4" width="1024" height="1024"/>
  <path class="cls-3" d="M487.2,633.6c-44.07.05-88.13.11-132.2.15-17.39.01-34.77.03-52.16-.1-2.75-.02-3.68.5-3.67,3.52.14,37.94.14,75.89.11,113.83-.02,20.32-14.31,37.11-34.23,40.38-22.54,3.7-43.37-11.12-47.37-33.71-.38-2.16-.63-4.32-.63-6.53,0-107.26-.04-214.52.02-321.78.01-23.49,18.68-41.76,41.95-41.43,21.64.31,40.18,19.01,40.18,40.59,0,40.53-.02,81.07-.11,121.6,0,2.01.52,2.42,2.47,2.42,79.04-.04,158.08-.06,237.12,0,46.7.03,87.95-14.74,123.39-45.14,17.51-15.02,31.43-32.98,42.44-53.21,1.12-2.05,2.4-4.01,3.61-6.02-.17,1.07-.25,2.17-.53,3.21-2.53,9.33-5.64,18.47-9.16,27.46-14.36,36.64-36.44,68-65.84,94.15-25.36,22.56-54.37,38.98-86.76,49.34-19.08,6.11-38.62,9.95-58.64,11.25Z"/>
  <path class="cls-2" d="M487.2,633.6c20.02-1.29,39.56-5.14,58.64-11.25,32.39-10.37,61.4-26.78,86.76-49.34,29.4-26.15,51.47-57.51,65.84-94.15,3.52-8.99,6.64-18.13,9.16-27.46.28-1.04.36-2.14.53-3.21,0,0-.04.07-.04.07.08-.06.22-.13.22-.19,0-.15-.08-.3-.12-.46,3.77-8.86,7.65-17.67,10.4-26.93,5.28-17.75,8.54-35.79,8.24-54.46-1.36.13-1.83,1.25-2.55,1.96-8.18,8.04-16.1,16.37-24.54,24.12-11.2,10.28-26.54,12.66-39.51,6.08-14.23-7.22-21.92-18.9-21.46-35.09.28-9.91,4.79-18.11,11.76-25.08,20.38-20.39,40.73-40.81,61.09-61.22,10.14-10.17,20.28-20.35,30.44-30.5,6.3-6.3,13.57-10.77,22.69-11.64,11.85-1.13,21.75,3,30.06,11.25,9.27,9.21,18.49,18.47,27.73,27.71,21.3,21.3,42.57,42.64,63.92,63.9,8.11,8.07,12.83,17.57,12.25,29.09-.75,14.91-8.44,25.66-21.83,31.75-12.93,5.87-25.67,4.5-36.86-4.57-8.84-7.16-16.37-15.77-24.49-23.73-1.48-1.45-2.74-3.12-4.1-4.68-.42.15-.85.3-1.27.46,0,4.49.22,9-.03,13.48-2,35.78-10.57,69.88-26.1,102.27-23.9,49.82-60.07,88.3-107.69,116.19-28.9,16.92-60.11,27.58-93.13,33.08-12.75,2.12-25.59,2.93-38.5,2.91-18.48-.03-36.97-.07-55.45-.12-.68,0-1.36-.15-2.04-.23Z"/>
  <path class="cls-3" d="M675.81,633.75c57.71-29.24,100.99-72.62,131.27-129.34.43.38.14,1.2.15,1.89.03,81.47.06,162.94.03,244.42,0,20.99-14.65,37.8-35.44,40.95-19.38,2.94-38.89-9.12-44.76-27.69-1.45-4.58-2.14-9.28-2.13-14.11.03-37.65-.02-75.3.07-112.95,0-2.71-.76-3.25-3.34-3.23-15.28.13-30.57.06-45.85.06Z"/>
  <path class="cls-3" d="M906.95,589.86c0,31.67.13,63.34-.06,95.01-.1,15.95-7.32,27.94-21.98,34.78-24.18,11.28-52.5-6.82-52.51-33.41-.01-63.64.19-127.28-.09-190.92-.09-20.03,14.42-34.75,29.58-37.66,23.4-4.5,44.59,12.4,44.86,36.3.24,21.51.13,43.02.17,64.53.02,10.46,0,20.91,0,31.37h.02Z"/>
  <path class="cls-3" d="M117.4,589.42c0-32.06.01-64.12-.01-96.18,0-5.59,1.3-10.82,3.85-15.78,8.02-15.62,25.3-23.63,42.27-19.59,16.24,3.86,28.22,18.9,28.26,36.03.07,32.66-.09,65.31-.11,97.97-.02,31.26.09,62.53,0,93.79-.05,16.99-10.58,31.01-26.5,35.76-22.83,6.81-46.63-9.39-47.57-33.14-.76-19.39-.3-38.82-.34-58.24-.03-13.54,0-27.08,0-40.62.05,0,.11,0,.16,0Z"/>
  <path class="cls-1" d="M708.19,447.62c.04.15.11.3.12.46,0,.06-.14.12-.22.19.03-.21.07-.43.1-.64Z"/>
</svg>