<?xml version="1.0" encoding="UTF-8"?>
<svg id="Capa_1" data-name="Capa 1" xmlns="http://www.w3.org/2000/svg" viewBox="0 0 1086.24 317.29">
  <defs>
    <style>
      .cls-1 {
        fill: #fefefd;
      }

      .cls-1, .cls-2, .cls-3 {
        stroke-width: 0px;
      }

      .cls-2 {
        fill: #94c51d;
      }

      .cls-4 {
        font-family: SFProRounded-Bold, 'SF Pro Rounded';
        font-size: 187.8px;
        font-weight: 700;
      }

      .cls-4, .cls-3 {
        fill: #fff;
      }
    </style>
  </defs>
  <g>
    <path class="cls-3" d="M196,212.07c-23.34.03-46.68.06-70.02.08-9.21,0-18.42.02-27.63-.05-1.46-.01-1.95.27-1.94,1.87.07,20.17.07,40.34.06,60.52,0,10.8-7.58,19.73-18.13,21.47-11.94,1.97-22.97-5.91-25.09-17.92-.2-1.15-.33-2.3-.33-3.47,0-57.02-.02-114.04.01-171.06,0-12.49,9.9-22.2,22.22-22.02,11.46.16,21.28,10.11,21.28,21.58,0,21.55-.01,43.1-.06,64.65,0,1.07.28,1.29,1.31,1.29,41.86-.02,83.73-.03,125.59,0,24.74.02,46.59-7.83,65.35-24,9.27-7.99,16.65-17.53,22.48-28.28.59-1.09,1.27-2.13,1.91-3.2-.09.57-.13,1.15-.28,1.71-1.34,4.96-2.99,9.82-4.85,14.6-7.61,19.48-19.3,36.15-34.87,50.05-13.43,11.99-28.8,20.72-45.96,26.23-10.11,3.25-20.45,5.29-31.06,5.98Z"/>
    <path class="cls-2" d="M196,212.07c10.6-.69,20.95-2.73,31.06-5.98,17.16-5.51,32.52-14.24,45.96-26.23,15.57-13.9,27.26-30.57,34.87-50.05,1.87-4.78,3.51-9.64,4.85-14.6.15-.55.19-1.14.28-1.71,0,0-.02.04-.02.04.04-.03.12-.07.12-.1,0-.08-.04-.16-.06-.24,2-4.71,4.05-9.4,5.51-14.32,2.8-9.44,4.52-19.02,4.37-28.95-.72.07-.97.67-1.35,1.04-4.33,4.27-8.53,8.7-13,12.82-5.93,5.47-14.06,6.73-20.93,3.23-7.54-3.84-11.61-10.05-11.37-18.65.15-5.27,2.54-9.63,6.23-13.33,10.8-10.84,21.57-21.7,32.36-32.55,5.37-5.41,10.74-10.82,16.12-16.22,3.34-3.35,7.19-5.73,12.02-6.19,6.28-.6,11.52,1.59,15.92,5.98,4.91,4.89,9.79,9.82,14.69,14.73,11.28,11.33,22.55,22.67,33.85,33.97,4.29,4.29,6.8,9.34,6.49,15.46-.4,7.92-4.47,13.64-11.56,16.88-6.85,3.12-13.6,2.39-19.52-2.43-4.68-3.81-8.67-8.38-12.97-12.61-.78-.77-1.45-1.66-2.17-2.49-.22.08-.45.16-.67.24,0,2.39.11,4.78-.02,7.17-1.06,19.02-5.6,37.15-13.83,54.37-12.66,26.48-31.82,46.94-57.04,61.77-15.31,9-31.84,14.66-49.33,17.59-6.75,1.13-13.55,1.56-20.39,1.55-9.79-.01-19.58-.04-29.37-.06-.36,0-.72-.08-1.08-.12Z"/>
    <path class="cls-3" d="M295.9,212.15c30.57-15.55,53.49-38.61,69.53-68.76.23.2.08.64.08,1,.01,43.31.03,86.62.02,129.93,0,11.16-7.76,20.09-18.77,21.77-10.27,1.56-20.6-4.85-23.71-14.72-.77-2.44-1.13-4.93-1.13-7.5.02-20.01-.01-40.03.04-60.04,0-1.44-.4-1.73-1.77-1.72-8.09.07-16.19.03-24.28.03Z"/>
    <path class="cls-3" d="M418.33,188.82c0,16.84.07,33.67-.03,50.51-.05,8.48-3.88,14.85-11.64,18.49-12.81,6-27.81-3.63-27.81-17.76,0-33.83.1-67.66-.05-101.49-.05-10.65,7.64-18.47,15.67-20.02,12.39-2.39,23.62,6.59,23.76,19.3.13,11.43.07,22.87.09,34.31,0,5.56,0,11.12,0,16.68h.01Z"/>
    <path class="cls-3" d="M.14,188.58c0-17.04,0-34.09,0-51.13,0-2.97.69-5.75,2.04-8.39,4.25-8.3,13.4-12.56,22.39-10.42,8.6,2.05,14.95,10.05,14.97,19.15.04,17.36-.05,34.72-.06,52.08-.01,16.62.05,33.24,0,49.86-.02,9.03-5.6,16.49-14.04,19.01-12.09,3.62-24.7-4.99-25.19-17.62-.4-10.31-.16-20.64-.18-30.96-.02-7.2,0-14.4,0-21.6.03,0,.06,0,.09,0Z"/>
    <path class="cls-1" d="M313.06,113.2c.02.08.06.16.06.24,0,.03-.08.07-.12.1.02-.11.03-.23.05-.34Z"/>
  </g>
  <text class="cls-4" transform="translate(501.61 204.23)"><tspan x="0" y="0">bulkup</tspan></text>
</svg>