<?xml version="1.0" encoding="UTF-8"?>
<svg id="Capa_1" data-name="Capa 1" xmlns="http://www.w3.org/2000/svg" viewBox="0 0 1023.91 1024">
  <defs>
    <style>
      .cls-1 {
        fill: #fefefd;
      }

      .cls-1, .cls-2, .cls-3 {
        stroke-width: 0px;
      }

      .cls-2 {
        fill: #94c51d;
      }

      .cls-3 {
        fill: #000201;
      }
    </style>
  </defs>
  <path class="cls-3" d="M511.95,0C642.45,0,772.95,0,903.45,0c58.71,0,109.97,44.12,118.89,102.33,1.02,6.63,1.52,13.29,1.52,19.99.01,152.94.01,305.88.02,458.82,0,107.09.05,214.18,0,321.27-.03,56.84-38.08,104.84-93.39,118-9.76,2.32-19.66,3.3-29.7,3.3-204.44-.02-408.89,0-613.33,0-55.66,0-111.33.81-166.97-.27-51.13-.99-87.93-25.98-110.04-72.03C2.79,935.44.08,918.2.08,900.5c.02-97.2,0-194.4-.02-291.6C.05,478.64.03,348.37.01,218.11c0-32.47-.04-64.93.02-97.4C.14,63.66,42.14,13.03,98.13,2.25,106.71.6,115.34.03,124.05.03c124.6,0,249.21,0,373.81,0,4.7,0,9.39,0,14.09,0V0ZM708,446.51l.04-.07c-1.21,2.01-2.5,3.98-3.61,6.03-11.01,20.29-24.93,38.3-42.44,53.37-35.44,30.49-76.69,45.3-123.39,45.27-79.04-.05-158.08-.04-237.12,0-1.95,0-2.47-.42-2.47-2.43.09-40.66.11-81.32.11-121.97,0-21.65-18.54-40.41-40.18-40.72-23.27-.33-41.94,18-41.95,41.55-.06,107.59-.01,215.18-.02,322.76,0,2.21.24,4.38.63,6.55,4,22.66,24.83,37.53,47.37,33.82,19.91-3.28,34.21-20.13,34.23-40.5.03-38.06.03-76.12-.11-114.18-.01-3.03.92-3.55,3.67-3.53,17.39.13,34.77.11,52.16.1,44.07-.04,88.13-.1,132.2-.15.68.08,1.36.23,2.04.23,18.48.05,36.97.1,55.45.12,12.91.02,25.75-.79,38.5-2.92,33.02-5.52,64.24-16.21,93.13-33.18,47.62-27.97,83.79-66.57,107.69-116.54,15.54-32.49,24.1-66.69,26.1-102.58.25-4.49.03-9.01.03-13.52.42-.15.85-.31,1.27-.46,1.36,1.57,2.62,3.25,4.1,4.7,8.12,7.98,15.65,16.61,24.49,23.8,11.19,9.09,23.93,10.47,36.86,4.58,13.4-6.1,21.08-16.89,21.83-31.84.58-11.56-4.14-21.08-12.25-29.18-21.35-21.32-42.61-42.72-63.92-64.09-9.24-9.27-18.46-18.56-27.73-27.79-8.31-8.27-18.2-12.41-30.06-11.28-9.11.87-16.38,5.36-22.69,11.68-10.16,10.18-20.3,20.39-30.44,30.59-20.36,20.47-40.7,40.96-61.09,61.41-6.97,6.99-11.48,15.22-11.76,25.16-.46,16.24,7.23,27.95,21.46,35.19,12.97,6.6,28.31,4.21,39.51-6.1,8.44-7.78,16.36-16.13,24.54-24.19.72-.71,1.19-1.84,2.55-1.97.3,18.73-2.96,36.82-8.24,54.62-2.76,9.29-6.63,18.13-10.4,27.01-.03.21-.07.43-.1.64ZM675.72,632.56c15.28,0,30.57.06,45.85-.06,2.58-.02,3.34.52,3.34,3.24-.1,37.76-.04,75.53-.07,113.29,0,4.84.68,9.55,2.13,14.15,5.87,18.63,25.38,30.72,44.76,27.77,20.79-3.16,35.43-20.02,35.44-41.07.03-81.72,0-163.44-.03-245.16,0-.69.29-1.52-.15-1.89-30.28,56.89-73.55,100.41-131.27,129.74ZM906.87,588.54h-.02c0-10.49.01-20.98,0-31.47-.03-21.58.07-43.16-.17-64.73-.27-23.97-21.46-40.92-44.86-36.41-15.16,2.92-29.67,17.68-29.58,37.78.27,63.83.08,127.66.09,191.5,0,26.67,28.33,44.83,52.51,33.51,14.66-6.86,21.88-18.88,21.98-34.88.19-31.77.06-63.53.06-95.3ZM117.31,588.09c-.05,0-.11,0-.16,0,0,13.58-.03,27.16,0,40.75.05,19.47-.42,38.97.34,58.41.93,23.82,24.73,40.07,47.57,33.24,15.93-4.77,26.46-18.83,26.5-35.87.09-31.36-.02-62.72,0-94.08.02-32.76.18-65.51.11-98.27-.04-17.18-12.02-32.26-28.26-36.14-16.98-4.05-34.25,3.98-42.27,19.65-2.55,4.97-3.85,10.22-3.85,15.83.02,32.16.01,64.31.01,96.47Z"/>
  <path class="cls-1" d="M487.11,633.6c-44.07.05-88.13.11-132.2.15-17.39.01-34.77.03-52.16-.1-2.75-.02-3.68.5-3.67,3.52.14,37.94.14,75.89.11,113.83-.02,20.32-14.31,37.11-34.23,40.38-22.54,3.7-43.37-11.12-47.37-33.71-.38-2.16-.63-4.32-.63-6.53,0-107.26-.04-214.52.02-321.78.01-23.49,18.68-41.76,41.95-41.43,21.64.31,40.18,19.01,40.18,40.59,0,40.53-.02,81.07-.11,121.6,0,2.01.52,2.42,2.47,2.42,79.04-.04,158.08-.06,237.12,0,46.7.03,87.95-14.74,123.39-45.14,17.51-15.02,31.43-32.98,42.44-53.21,1.12-2.05,2.4-4.01,3.61-6.02-.17,1.07-.25,2.17-.53,3.21-2.53,9.33-5.64,18.47-9.16,27.46-14.36,36.64-36.44,68-65.84,94.15-25.36,22.56-54.37,38.98-86.76,49.34-19.08,6.11-38.62,9.95-58.64,11.25Z"/>
  <path class="cls-2" d="M487.11,633.6c20.02-1.29,39.56-5.14,58.64-11.25,32.39-10.37,61.4-26.78,86.76-49.34,29.4-26.15,51.47-57.51,65.84-94.15,3.52-8.99,6.64-18.13,9.16-27.46.28-1.04.36-2.14.53-3.21,0,0-.04.07-.04.07.08-.06.22-.13.22-.19,0-.15-.08-.3-.12-.46,3.77-8.86,7.65-17.67,10.4-26.93,5.28-17.75,8.54-35.79,8.24-54.46-1.36.13-1.83,1.25-2.55,1.96-8.18,8.04-16.1,16.37-24.54,24.12-11.2,10.28-26.54,12.66-39.51,6.08-14.23-7.22-21.92-18.9-21.46-35.09.28-9.91,4.79-18.11,11.76-25.08,20.38-20.39,40.73-40.81,61.09-61.22,10.14-10.17,20.28-20.35,30.44-30.5,6.3-6.3,13.57-10.77,22.69-11.64,11.85-1.13,21.75,3,30.06,11.25,9.27,9.21,18.49,18.47,27.73,27.71,21.3,21.3,42.57,42.64,63.92,63.9,8.11,8.07,12.83,17.57,12.25,29.09-.75,14.91-8.44,25.66-21.83,31.75-12.93,5.87-25.67,4.5-36.86-4.57-8.84-7.16-16.37-15.77-24.49-23.73-1.48-1.45-2.74-3.12-4.1-4.68-.42.15-.85.3-1.27.46,0,4.49.22,9-.03,13.48-2,35.78-10.57,69.88-26.1,102.27-23.9,49.82-60.07,88.3-107.69,116.19-28.9,16.92-60.11,27.58-93.13,33.08-12.75,2.12-25.59,2.93-38.5,2.91-18.48-.03-36.97-.07-55.45-.12-.68,0-1.36-.15-2.04-.23Z"/>
  <path class="cls-1" d="M675.72,633.75c57.71-29.24,100.99-72.62,131.27-129.34.43.38.14,1.2.15,1.89.03,81.47.06,162.94.03,244.42,0,20.99-14.65,37.8-35.44,40.95-19.38,2.94-38.89-9.12-44.76-27.69-1.45-4.58-2.14-9.28-2.13-14.11.03-37.65-.02-75.3.07-112.95,0-2.71-.76-3.25-3.34-3.23-15.28.13-30.57.06-45.85.06Z"/>
  <path class="cls-1" d="M906.87,589.86c0,31.67.13,63.34-.06,95.01-.1,15.95-7.32,27.94-21.98,34.78-24.18,11.28-52.5-6.82-52.51-33.41-.01-63.64.19-127.28-.09-190.92-.09-20.03,14.42-34.75,29.58-37.66,23.4-4.5,44.59,12.4,44.86,36.3.24,21.51.13,43.02.17,64.53.02,10.46,0,20.91,0,31.37h.02Z"/>
  <path class="cls-1" d="M117.31,589.42c0-32.06.01-64.12-.01-96.18,0-5.59,1.3-10.82,3.85-15.78,8.02-15.62,25.3-23.63,42.27-19.59,16.24,3.86,28.22,18.9,28.26,36.03.07,32.66-.09,65.31-.11,97.97-.02,31.26.09,62.53,0,93.79-.05,16.99-10.58,31.01-26.5,35.76-22.83,6.81-46.63-9.39-47.57-33.14-.76-19.39-.3-38.82-.34-58.24-.03-13.54,0-27.08,0-40.62.05,0,.11,0,.16,0Z"/>
  <path class="cls-1" d="M708.1,447.62c.04.15.11.3.12.46,0,.06-.14.12-.22.19.03-.21.07-.43.1-.64Z"/>
</svg>