<?xml version="1.0" encoding="UTF-8"?>
<svg id="Capa_1" data-name="Capa 1" xmlns="http://www.w3.org/2000/svg" viewBox="0 0 794.85 879.49">
  <defs>
    <style>
      .cls-1 {
        fill: #fefefd;
      }

      .cls-1, .cls-2, .cls-3 {
        stroke-width: 0px;
      }

      .cls-4 {
        font-family: SFProRounded-Bold, 'SF Pro Rounded';
        font-size: 255.27px;
        font-weight: 700;
      }

      .cls-4, .cls-3 {
        fill: #111827;
      }

      .cls-2 {
        fill: #94c51d;
      }
    </style>
  </defs>
  <g>
    <path class="cls-3" d="M379.43,288.26c-31.73.04-63.45.08-95.18.11-12.52.01-25.04.02-37.55-.07-1.98-.01-2.65.36-2.64,2.55.1,27.42.1,54.84.08,82.26-.01,14.68-10.31,26.82-24.64,29.18-16.23,2.68-31.22-8.04-34.1-24.36-.28-1.56-.45-3.13-.45-4.72,0-77.51-.03-155.02.01-232.52,0-16.97,13.45-30.17,30.2-29.94,15.58.22,28.93,13.74,28.92,29.33,0,29.29-.01,58.58-.08,87.87,0,1.45.38,1.75,1.78,1.75,56.9-.03,113.81-.04,170.71,0,33.62.02,63.32-10.65,88.83-32.62,12.61-10.86,22.63-23.83,30.55-38.45.8-1.48,1.73-2.9,2.6-4.35-.12.78-.18,1.57-.38,2.32-1.82,6.74-4.06,13.35-6.6,19.84-10.34,26.48-26.24,49.14-47.4,68.03-18.26,16.3-39.15,28.16-62.47,35.65-13.74,4.41-27.8,7.19-42.22,8.13Z"/>
    <path class="cls-3" d="M515.22,288.37c41.55-21.13,72.71-52.48,94.51-93.46.31.27.1.87.1,1.37.02,58.87.04,117.74.02,176.62,0,15.16-10.55,27.31-25.52,29.59-13.95,2.12-28-6.59-32.22-20.01-1.04-3.31-1.54-6.7-1.53-10.19.02-27.21-.02-54.41.05-81.62,0-1.96-.55-2.35-2.4-2.33-11,.09-22.01.04-33.01.04Z"/>
    <path class="cls-3" d="M681.63,256.66c0,22.88.1,45.77-.04,68.65-.07,11.53-5.27,20.19-15.82,25.13-17.41,8.15-37.8-4.93-37.8-24.14,0-45.99.14-91.97-.06-137.96-.06-14.47,10.38-25.11,21.3-27.21,16.85-3.25,32.1,8.96,32.29,26.23.17,15.54.1,31.09.12,46.63.01,7.56,0,15.11,0,22.67h.02Z"/>
    <path class="cls-3" d="M113.19,256.33c0-23.17,0-46.33,0-69.5,0-4.04.94-7.82,2.77-11.4,5.78-11.29,18.21-17.08,30.43-14.16,11.69,2.79,20.32,13.66,20.34,26.04.05,23.6-.06,47.2-.08,70.79-.01,22.59.06,45.18,0,67.77-.03,12.28-7.62,22.41-19.08,25.84-16.44,4.92-33.57-6.79-34.24-23.95-.55-14.01-.21-28.05-.25-42.08-.02-9.78,0-19.57,0-29.35.04,0,.08,0,.12,0Z"/>
    <path class="cls-1" d="M538.53,153.87c.03.11.08.22.09.33,0,.04-.1.09-.16.13.02-.15.05-.31.07-.46Z"/>
  </g>
  <path class="cls-2" d="M379.43,288.26c14.41-.93,28.48-3.71,42.22-8.13,23.32-7.49,44.2-19.35,62.47-35.65,21.16-18.89,37.06-41.55,47.4-68.03,2.54-6.5,4.78-13.1,6.6-19.84.2-.75.26-1.55.38-2.32,0,0-.03.05-.03.05.06-.05.16-.09.16-.13,0-.11-.05-.22-.09-.33,2.72-6.4,5.5-12.77,7.49-19.46,3.8-12.83,6.15-25.86,5.94-39.35-.98.1-1.32.91-1.84,1.42-5.89,5.81-11.59,11.83-17.67,17.43-8.06,7.43-19.11,9.15-28.45,4.39-10.24-5.22-15.78-13.66-15.45-25.35.2-7.16,3.45-13.09,8.47-18.12,14.68-14.73,29.32-29.49,43.98-44.24,7.3-7.35,14.6-14.7,21.92-22.04,4.54-4.55,9.77-7.79,16.33-8.41,8.53-.82,15.66,2.17,21.64,8.13,6.68,6.65,13.31,13.35,19.97,20.02,15.34,15.39,30.64,30.81,46.02,46.17,5.84,5.83,9.24,12.69,8.82,21.02-.54,10.77-6.07,18.54-15.72,22.94-9.31,4.24-18.48,3.25-26.54-3.3-6.37-5.18-11.79-11.4-17.63-17.14-1.06-1.05-1.97-2.25-2.95-3.39-.3.11-.61.22-.91.33,0,3.25.16,6.5-.02,9.74-1.44,25.85-7.61,50.5-18.79,73.9-17.2,36-43.25,63.81-77.53,83.96-20.8,12.23-43.28,19.93-67.05,23.9-9.18,1.53-18.42,2.12-27.72,2.1-13.31-.02-26.62-.05-39.92-.09-.49,0-.98-.11-1.47-.17Z"/>
  <text class="cls-4" transform="translate(0 725.81)"><tspan x="0" y="0">bulkup</tspan></text>
</svg>